<?xml version="1.0" encoding="utf-8"?>
<!-- Generator: Adobe Illustrator 25.4.1, SVG Export Plug-In . SVG Version: 6.00 Build 0)  -->
<svg version="1.1" id="Слой_1" xmlns="http://www.w3.org/2000/svg" xmlns:xlink="http://www.w3.org/1999/xlink" x="0px" y="0px"
	 viewBox="0 0 338 315.3" style="enable-background:new 0 0 338 315.3;" xml:space="preserve">
<style type="text/css">
	.st0{fill:none;stroke:#fff;stroke-width:14;stroke-linecap:round;stroke-linejoin:round;}
</style>
<path class="st0" d="M117.3,297.6C38.4,277-8.9,196.2,11.8,117.3S113.1-8.8,192.1,11.8c65,17,110.3,75.7,110.3,142.9 M239.2,73.5
	l-71.1,71.1 M140.6,148.5l-55-31.7 M154.7,138c-9.2,0-16.7,7.5-16.7,16.7s7.5,16.7,16.7,16.7s16.7-7.5,16.7-16.7l0,0
	C171.4,145.5,163.9,138,154.7,138z M154.7,42.5v10.4 M42.5,154.7h10.4 M331,115.8l-25.4,53.3L269,122.8 M292.1,308.3V197.1
	l-54.4,78.5l76.5-1.1 M224.8,308.3H155l41.8-41.8 M196.8,266.5c29.1-25.9,20.8-52.4,2.8-62.3c-27.8-15.2-48.3,14.6-45.3,34.4"/>
</svg>
