<?xml version="1.0" encoding="utf-8"?>
<!-- Generator: Adobe Illustrator 25.4.1, SVG Export Plug-In . SVG Version: 6.00 Build 0)  -->
<svg version="1.1" id="Layer_1" xmlns="http://www.w3.org/2000/svg" xmlns:xlink="http://www.w3.org/1999/xlink" x="0px" y="0px"
	 viewBox="0 0 112.1 112" style="enable-background:new 0 0 112.1 112;" xml:space="preserve">
<style type="text/css">
	.st0{fill-rule:evenodd;clip-rule:evenodd;fill:#fff;}
	.st1{fill:none;stroke:#1b1d1f;stroke-width:2;stroke-linecap:round;stroke-linejoin:round;}
</style>
<path class="st0" d="M60.4,112c4.6,0.1,9.1-1.8,12.2-5.2c0.8-0.8,3.8-0.5,3.8-0.5c0.1,0.5,0.1,1,0,1.5c-0.1,0.7-1.4,4.2,0.4,4.2
	s0.9,0,0.9,0s0.9,0.2,0.9-1.9c0-1.4-1-1.7-0.9-2.9s0.3-0.9,0.9-1c3.8-0.2,7.2-2.1,9.4-5.2c1.1-0.2,2.2-0.2,3.3,0
	c1,0.2,5.2-4.3,5.6-5.2s1.2,1.2,1.9,1c0.6-0.3,1.1-0.8,1.4-1.4c0.5-1.5,0.5-3.2,0-4.8c0-0.1,4-3.3,3.8-8.1c0-0.6,2.6,1,4.7-0.5
	c0.9-0.7,1.5-1.7,1.4-2.9c-0.4-1.6-1.2-3.1-2.3-4.3c-0.3-0.2,0-2.9,0-2.9c-0.4-0.6-0.5-1.2-0.5-1.9c0.1-1.2,0.7-2.4,0.9-3.8
	s0.4-3.9,0.5-4.3s3.2-2.4,3.3-3.8s-1-4.2-3.3-4.8c-0.1,0-1.3-6.4-1.4-7.2s-1-1.2-0.5-2.9s1-1.4,0.9-1.9c-0.2-1.9-1.1-3.8-2.3-5.2
	c0,0,1.9-2,1.9-2.9c-0.1-1.6-3.2-2.4-7.5-2.4c-1.1,0-2.5-6.6-1.4-8.1c0.2-0.3-2.8-1.3-5.6-3.3c-3.4-2.5-6.8-6.1-7.5-7.6
	c-1.2-2.8-9.8-7.4-13.2-8.1s-4.2-0.5-4.2-0.5s0.7-1.3,0.9-1.9S68.7,0,68.4,0s-1.8,0.3-1.9,1.4c-0.1,0.6-0.1,1.3,0,1.9
	c-2.2,0-4.5-0.3-6.6-1C56.8,1.3,53.6,0,52,0s-8.4,2.3-9,2.9s-1.8-0.9-1.9-1s-1.9,0.8-1.9,1.9c0,0.4-5.1-1.4-6.1,2.4
	c0,0.1-0.5,0-0.5,0S28.2,2.5,27,2.8s0.7,4.4,0.9,4.8S25.8,7.3,25.1,9c-0.1,0.2-1.9,0.5-2.4,0c-0.3-0.3-6.5-8.6-7-8.6
	s3.8,7.9,3.8,10.6c-0.1,1.7-0.5,3.3-1.4,4.8c-0.1,0.1-2-1-2.8,0c-1.5,1.9-2.8,4-3.8,6.2c-0.1,0.1-1.4,0-1.4,0s-3.1-2.6-4.7-2.4
	c-1,0.1-1.8,0.9-1.9,1.9c0,0.1,4.3-1.5,7,3.8v1c0,0-3.6,4.7-7.5,4.7c-2.1,0,3.2,2.6,3.8,2.8S6,35.4,5.9,36.2s-3-0.4-3.8,0.5
	c-0.5,0.8-0.3,1.8,0.5,2.4c0.9,0.6,2.8,0,2.8,0s1,4.7-5.2,8.1C-0.8,47.8,4,49.1,4,49.1s0.4,6.5,1.4,7.6s-3.3,3.7-2.8,4.8
	c0.1,0.2,1.8,0.2,1.9,1.4c0.1,2-0.1,5.4,1.4,6.2l-1.4,1.4c0,0,1.2,1.9,0.9,3.3c-0.4,1.1-1,2.1-1.9,2.9c1.1-0.4,2.2-0.7,3.3-1
	c0.8-0.1,1.6-0.1,2.3,0c0,0,0.5,5.8,3.8,9.1c1.2,1.2,4.7,8.4,6.6,10s7.8,7.7,9.9,8.6s8.5,4.9,8.9,5.7s10.7,0.4,11.8,0.5
	c0.5,0,2.3,1.3,4.7,1.9C56.7,111.9,58.5,112,60.4,112z"/>
<path class="st1" d="M50.5,71.5c1.1,1.4,2.5,2.5,4.1,3.3c-6.6-0.4-13.4-3.9-19.9-5.9c-1.3-0.6-2.2-2-2.2-3.4v-3.1
	c0-1,0.8-2.2,1.7-2.3h14.9C63.7,60.1,44.6,64.6,50.5,71.5L50.5,71.5z M54.6,74.8l9.6,0.1 M64.3,74.9c1.3,0.1,2.7-0.5,3.5-1.6
	 M67.7,73.3c1-1.8,2.5-3.5,4.2-4.7c4.1-2.4,9.3-1.7,12.6,1.6 M75.5,67c0.6-5.3-0.1-10.7-2-15.6l-4.6-10.6c-0.7-1.5-8.2,0.9-8.1,2.7
	 M77,43.9c0.4,0,0.8,0,1.2,0.1l-0.7,5.6H77c-2.2,0-3.9-1.3-3.9-2.9S74.8,43.9,77,43.9L77,43.9z M77.4,75.3c1.3,0,2.4,1,2.5,2.4
	s-1,2.4-2.4,2.5s-2.4-1-2.5-2.4c0,0,0,0,0,0l0,0C75,76.4,76.1,75.3,77.4,75.3L77.4,75.3z M77.4,71.4c3.5,0,6.3,2.8,6.3,6.3
	S80.8,84,77.4,84c-3.5,0-6.3-2.8-6.3-6.3v0C71.1,74.2,73.9,71.4,77.4,71.4z M39.9,75.3c1.3,0,2.4,1.1,2.4,2.4c0,1.3-1.1,2.4-2.4,2.4
	s-2.4-1.1-2.4-2.4l0,0C37.5,76.4,38.6,75.3,39.9,75.3L39.9,75.3z M39.9,71.4c3.5,0,6.3,2.8,6.3,6.3c0,3.5-2.8,6.3-6.3,6.3
	s-6.3-2.8-6.3-6.3l0,0C33.6,74.2,36.4,71.4,39.9,71.4z M36.1,60.1h-8.5v-5.8h24.2v5.8 M40.4,34.6v25.5 M40.7,33.9
	C34.7,20.1,22.8,34.9,40.7,33.9L40.7,33.9c13.9-0.4,5.1-10.2,0.5-1.6C41,32.6,40.8,33.6,40.7,33.9z M31.1,54.1v-5.8h24.2l0.2,6.1
	h-3.7 M31.1,48.3h-3.4l-0.1-6.1h24.2V48 M28.9,41.9v-5.8h24.2v6.3h-1.7"/>
</svg>
