<?xml version="1.0" encoding="utf-8"?>
<!-- Generator: Adobe Illustrator 25.4.1, SVG Export Plug-In . SVG Version: 6.00 Build 0)  -->
<svg version="1.1" id="Слой_1" xmlns="http://www.w3.org/2000/svg" xmlns:xlink="http://www.w3.org/1999/xlink" x="0px" y="0px"
	 viewBox="0 0 310.6 305.3" style="enable-background:new 0 0 310.6 305.3;" xml:space="preserve">
<style type="text/css">
	.st0{fill:none;stroke:#fff;stroke-width:9;stroke-linecap:round;stroke-linejoin:round;}
</style>
<path class="st0" d="M125.8,235c2.8,3.4,7.6,9.4,21.8,17.2c-34.7-2-71.1-20.6-105.5-31.1c-6.5-2-11.4-10.9-11.4-18.2l-0.2-16.3
	c0-5.1,4.2-11.6,8.9-12l78.7-0.2c77.5-0.2-23.6,23.5,7.5,60.5L125.8,235z"/>
<line class="st0" x1="147.6" y1="252.2" x2="198.6" y2="252.8"/>
<path class="st0" d="M198.7,252.8c6.6,0.1,14.5-2.3,18.4-8.4"/>
<path class="st0" d="M217,244.4c6.7-10.5,13.5-19.1,22.2-24.9c17.1-11.3,48.9-10.9,66.9,8.6"/>
<path class="st0" d="M257.9,210.9c4.1-37.1-4.2-68.4-10.4-82.7L223,71.9c-3.5-8.1-43.1,4.6-42.8,14.4"/>
<path class="st0" d="M266,88.9c2.1,0,4.1,0.2,6.1,0.7l-3.6,29.5H266c-11.4,0-20.6-6.8-20.6-15.2s9.2-15.2,20.6-15.2V88.9z"/>
<path class="st0" d="M268,254.9c7,0,12.7,5.7,12.7,12.7s-5.7,12.7-12.7,12.7c-7,0-12.7-5.7-12.7-12.7l0,0
	C255.3,260.6,261,254.9,268,254.9L268,254.9z"/>
<path class="st0" d="M268,234.4c18.3,0,33.2,14.9,33.2,33.2s-14.9,33.2-33.2,33.2c-18.3,0-33.2-14.9-33.2-33.2
	S249.7,234.4,268,234.4L268,234.4z"/>
<path class="st0" d="M69.8,254.9c7,0,12.7,5.7,12.7,12.7c0,7-5.7,12.7-12.7,12.7c-7,0-12.6-5.6-12.7-12.6l0,0
	c0-7,5.7-12.7,12.7-12.7l0,0V254.9z"/>
<path class="st0" d="M69.8,234.4c18.3,0,33.2,14.9,33.2,33.2c0,18.3-14.9,33.2-33.2,33.2s-33.2-14.9-33.2-33.2
	S51.5,234.4,69.8,234.4C69.8,234.4,69.8,234.4,69.8,234.4z"/>
<polyline class="st0" points="49.5,174.6 4.5,174.6 4.5,143.8 132.8,143.8 132.8,174.6 "/>
<line class="st0" x1="72.3" y1="39.6" x2="72.3" y2="174.6"/>
<path class="st0" d="M73.8,36C42.1-37.4-20.7,41,73.8,36L73.8,36c73.7-1.9,27.2-53.9,2.6-8.5C75.6,28.8,74.3,34.4,73.8,36z"/>
<polyline class="st0" points="23.2,142.4 23.2,111.7 151.5,111.7 152.5,143.8 132.8,143.8 "/>
<polyline class="st0" points="23.2,111.7 5.1,111.7 4.5,79.5 132.8,79.5 132.8,110.3 "/>
<polyline class="st0" points="11.5,78.1 11.5,47.4 139.8,47.4 139.8,80.5 130.9,80.5 "/>
</svg>
