<?xml version="1.0" encoding="utf-8"?>
<!-- Generator: Adobe Illustrator 25.4.1, SVG Export Plug-In . SVG Version: 6.00 Build 0)  -->
<svg version="1.1" id="Слой_1" xmlns="http://www.w3.org/2000/svg" xmlns:xlink="http://www.w3.org/1999/xlink" x="0px" y="0px"
	 viewBox="0 0 341.7 339.2" style="enable-background:new 0 0 341.7 339.2;" xml:space="preserve">
<style type="text/css">
	.st0{fill:none;stroke:#fff;stroke-width:14;stroke-linecap:round;stroke-linejoin:round;}
</style>
<path class="st0" d="M170.9,176.6l23.5,55.7l58.3,3.7L207,275.6l14.4,56.6L169.7,301l-49.4,31.2l13.7-58.9L89,236l60.2-5.1
	L170.9,176.6L170.9,176.6z M140.9,34.9c0,19.4,13.4,32.8,29.9,32.8s29.9-13.5,29.9-32.8C200.8-2.9,141-1.7,140.9,34.9L140.9,34.9z
	 M109.4,155.2v-37c0.1-16.7,13.6-30.2,30.2-30.2h62.5c16.7,0.1,30.2,13.6,30.2,30.2v37 M139.9,153.7v-34.7 M201.9,119.1v34.7
	 M102.9,281l-27.7-16.7l-41.8,26.4L45,241L7,209.4l50.9-4.4l18.3-45.9l19.9,47.1l30.4,2 M238.8,281l27.7-16.7l41.8,26.4L296.7,241
	l38-31.6l-50.9-4.4l-18.3-45.9l-19.9,47.1l-30.4,2"/>
</svg>
