<?xml version="1.0" encoding="utf-8"?>
<!-- Generator: Adobe Illustrator 25.4.1, SVG Export Plug-In . SVG Version: 6.00 Build 0)  -->
<svg version="1.1" id="Layer_1" xmlns="http://www.w3.org/2000/svg" xmlns:xlink="http://www.w3.org/1999/xlink" x="0px" y="0px"
	 viewBox="0 0 112.1 112" style="enable-background:new 0 0 112.1 112;" xml:space="preserve">
<style type="text/css">
	.st0{fill-rule:evenodd;clip-rule:evenodd;fill:#fff;}
	.st1{fill:none;stroke:#1b1d1f;stroke-width:2;stroke-linecap:round;stroke-linejoin:round;}
</style>
<path class="st0" d="M60.4,112c4.6,0.1,9.1-1.8,12.2-5.2c0.8-0.8,3.8-0.5,3.8-0.5c0.1,0.5,0.1,1,0,1.5c-0.1,0.7-1.4,4.2,0.4,4.2
	s0.9,0,0.9,0s0.9,0.2,0.9-1.9c0-1.4-1-1.7-0.9-2.9s0.3-0.9,0.9-1c3.8-0.2,7.2-2.1,9.4-5.2c1.1-0.2,2.2-0.2,3.3,0
	c1,0.2,5.2-4.3,5.6-5.2s1.2,1.2,1.9,1c0.6-0.3,1.1-0.8,1.4-1.4c0.5-1.5,0.5-3.2,0-4.8c0-0.1,4-3.3,3.8-8.1c0-0.6,2.6,1,4.7-0.5
	c0.9-0.7,1.5-1.7,1.4-2.9c-0.4-1.6-1.2-3.1-2.3-4.3c-0.3-0.2,0-2.9,0-2.9c-0.4-0.6-0.5-1.2-0.5-1.9c0.1-1.2,0.7-2.4,0.9-3.8
	s0.4-3.9,0.5-4.3s3.2-2.4,3.3-3.8s-1-4.2-3.3-4.8c-0.1,0-1.3-6.4-1.4-7.2s-1-1.2-0.5-2.9s1-1.4,0.9-1.9c-0.2-1.9-1.1-3.8-2.3-5.2
	c0,0,1.9-2,1.9-2.9c-0.1-1.6-3.2-2.4-7.5-2.4c-1.1,0-2.5-6.6-1.4-8.1c0.2-0.3-2.8-1.3-5.6-3.3c-3.4-2.5-6.8-6.1-7.5-7.6
	c-1.2-2.8-9.8-7.4-13.2-8.1s-4.2-0.5-4.2-0.5s0.7-1.3,0.9-1.9S68.7,0,68.4,0s-1.8,0.3-1.9,1.4c-0.1,0.6-0.1,1.3,0,1.9
	c-2.2,0-4.5-0.3-6.6-1C56.8,1.3,53.6,0,52,0s-8.4,2.3-9,2.9s-1.8-0.9-1.9-1s-1.9,0.8-1.9,1.9c0,0.4-5.1-1.4-6.1,2.4
	c0,0.1-0.5,0-0.5,0S28.2,2.5,27,2.8s0.7,4.4,0.9,4.8S25.8,7.3,25.1,9c-0.1,0.2-1.9,0.5-2.4,0c-0.3-0.3-6.5-8.6-7-8.6
	s3.8,7.9,3.8,10.6c-0.1,1.7-0.5,3.3-1.4,4.8c-0.1,0.1-2-1-2.8,0c-1.5,1.9-2.8,4-3.8,6.2c-0.1,0.1-1.4,0-1.4,0s-3.1-2.6-4.7-2.4
	c-1,0.1-1.8,0.9-1.9,1.9c0,0.1,4.3-1.5,7,3.8v1c0,0-3.6,4.7-7.5,4.7c-2.1,0,3.2,2.6,3.8,2.8S6,35.4,5.9,36.2s-3-0.4-3.8,0.5
	c-0.5,0.8-0.3,1.8,0.5,2.4c0.9,0.6,2.8,0,2.8,0s1,4.7-5.2,8.1C-0.8,47.8,4,49.1,4,49.1s0.4,6.5,1.4,7.6s-3.3,3.7-2.8,4.8
	c0.1,0.2,1.8,0.2,1.9,1.4c0.1,2-0.1,5.4,1.4,6.2l-1.4,1.4c0,0,1.2,1.9,0.9,3.3c-0.4,1.1-1,2.1-1.9,2.9c1.1-0.4,2.2-0.7,3.3-1
	c0.8-0.1,1.6-0.1,2.3,0c0,0,0.5,5.8,3.8,9.1c1.2,1.2,4.7,8.4,6.6,10s7.8,7.7,9.9,8.6s8.5,4.9,8.9,5.7s10.7,0.4,11.8,0.5
	c0.5,0,2.3,1.3,4.7,1.9C56.7,111.9,58.5,112,60.4,112z"/>
<path class="st1" d="M68.9,59.9c2.1,0,3.7,1.7,3.7,3.7c0,2.1-1.7,3.7-3.7,3.7c-2.1,0-3.7-1.7-3.7-3.7l0,0l0,0
	C65.1,61.6,66.8,59.9,68.9,59.9z M82.1,72.8v6.3c0,2.7-2.2,4.8-4.8,4.8H32.7c-2.7,0-4.8-2.2-4.8-4.8V47.6c0-2.7,2.2-4.8,4.8-4.8
	h44.5c2.7,0,4.8,2.2,4.8,4.8v7.3 M72.2,34.6l-17.5,8.2 M76.5,42l-5.7-12.2c-0.7-1.6-2.6-2.2-4.2-1.5L36.3,42.4 M68.2,54.8h13.4
	c1.5,0,2.7,1.2,2.7,2.7v11.8c0,1.5-1.2,2.7-2.7,2.7c0,0,0,0,0,0H68.2c-4.2,0-7.6-3.4-7.6-7.6v-2C60.6,58.2,64,54.8,68.2,54.8
	L68.2,54.8z M27.9,47.6H32 M36.1,47.6h4.2 M44.4,47.6h4.2 M52.6,47.6h4.2 M60.9,47.6H65 M69.1,47.6h4.2 M77.4,47.6h4.2 M27.9,79.1
	H32 M36.1,79.1h4.2 M44.4,79.1h4.2 M52.6,79.1h4.2 M60.9,79.1H65 M69.1,79.1h4.2 M77.4,79.1h4.2"/>
</svg>
